# xmcd CD database file
#
# Track frame offsets:
#	150
#	32608
#	46056
#	58273
#	72363
#	84420
#	99323
#	108690
#	127240
#	142258
#	160822
#
# Disc length: 2462 seconds
#
# Revision: 0
# Processed by: cddbd v1.5.1PL0 Copyright (c) Steve Scherf et al.
# Submitted via: CDex 1.51
#
DISCID=9d099c0b
DTITLE=Janis Ian - Stars
DYEAR=1974
DGENRE=Blues
TTITLE0=Stars
TTITLE1=The Man You Are In Me
TTITLE2=Sweet Sympathy
TTITLE3=Page Nine
TTITLE4=Thankyous
TTITLE5=Dance With Me
TTITLE6=Without You
TTITLE7=Jesse
TTITLE8=You've Got Me On A String
TTITLE9=Applause
TTITLE10=Bonus Cut: Jesse Live
EXTD=YEAR: 1974
EXTT0=
EXTT1=
EXTT2=
EXTT3=
EXTT4=
EXTT5=
EXTT6=
EXTT7=
EXTT8=
EXTT9=
EXTT10=
PLAYORDER=
